<svg width="415" height="496" viewBox="0 0 415 496" fill="none" xmlns="http://www.w3.org/2000/svg">
<path d="M8 412.96C42.2624 383.849 112.419 337.684 205.689 337.684C302.383 337.684 387.968 393.063 408 412.96C386.427 450.108 298.683 490 205.689 490C120.305 490 43.8033 459.125 8 412.96Z" stroke="#D1D1D1" stroke-width="11"/>
<path d="M257.021 414.136C257.021 443.991 234.737 467.445 208.136 467.445C181.535 467.445 159.251 443.991 159.251 414.136C159.251 384.281 181.535 360.827 208.136 360.827C234.737 360.827 257.021 384.281 257.021 414.136Z" stroke="#D1D1D1" stroke-width="11"/>
<path d="M109.164 94.9004C99.6463 94.9004 131.461 9.62681 207.328 6.09825C283.195 2.5697 320.633 94.9004 304.677 151.357C289.906 203.619 256.093 217.42 230.17 216.341V310.142H182.768L180.408 173.999C198.986 173.999 232.34 178.024 254.099 151.357C278.572 121.364 256.106 46.9707 212.767 46.9707C182.768 46.9707 163.005 80.1981 156.75 94.9004M109.164 94.9004C116.777 94.9004 143.517 94.9004 156.75 94.9004M109.164 94.9004H156.75" stroke="#D1D1D1" stroke-width="11"/>
</svg>
